<svg width="37" height="12" viewBox="0 0 37 12" fill="none" xmlns="http://www.w3.org/2000/svg">
<path d="M4.25681 1.10002H5.98967L9.82468 11.04H7.80774L6.8703 8.56203H3.34777L2.42452 11.04H0.407593L4.25681 1.10002ZM6.5152 7.20402L5.12324 3.29802L3.67445 7.20402H6.5152Z" fill="#2A7AE4"/>
<path d="M10.7319 0.820023H12.6352V8.68803C12.6352 8.95869 12.7015 9.16869 12.8341 9.31803C12.9667 9.46736 13.156 9.54203 13.4022 9.54203C13.5159 9.54203 13.639 9.52336 13.7715 9.48603C13.9136 9.44869 14.0461 9.40203 14.1692 9.34603L14.4249 10.774C14.1692 10.8954 13.871 10.9887 13.5301 11.054C13.1892 11.1194 12.8814 11.152 12.6068 11.152C12.0103 11.152 11.5463 10.998 11.2149 10.69C10.8929 10.3727 10.7319 9.92469 10.7319 9.34603V0.820023Z" fill="#2A7AE4"/>
<path d="M17.5268 11.18C16.7598 11.18 16.1774 10.9374 15.7797 10.452C15.382 9.96669 15.1831 9.24803 15.1831 8.29603V3.70402H17.0865V7.89003C17.0865 9.01936 17.4984 9.58403 18.3222 9.58403C18.6915 9.58403 19.0466 9.47669 19.3875 9.26203C19.7378 9.03803 20.0219 8.70203 20.2397 8.25403V3.70402H22.143V8.88402C22.143 9.08002 22.1761 9.22003 22.2424 9.30403C22.3182 9.38803 22.4365 9.43469 22.5975 9.44403V11.04C22.4081 11.0774 22.2471 11.1007 22.1146 11.11C21.9915 11.1194 21.8778 11.124 21.7737 11.124C21.4328 11.124 21.1535 11.0494 20.9357 10.9C20.7273 10.7414 20.6042 10.5267 20.5664 10.256L20.5238 9.66803C20.1923 10.172 19.7662 10.55 19.2454 10.802C18.7246 11.054 18.1517 11.18 17.5268 11.18Z" fill="#2A7AE4"/>
<path d="M28.466 5.32802C27.8884 5.33736 27.3723 5.44936 26.9178 5.66402C26.4633 5.86936 26.1366 6.18202 25.9377 6.60202V11.04H24.0344V3.70402H25.7815V5.27202C25.914 5.02002 26.0703 4.79602 26.2502 4.60002C26.4301 4.39469 26.6242 4.21736 26.8326 4.06802C27.0409 3.91869 27.2492 3.80669 27.4575 3.73202C27.6753 3.64802 27.8836 3.60602 28.0825 3.60602C28.1866 3.60602 28.2624 3.60602 28.3097 3.60602C28.3666 3.60602 28.4186 3.61069 28.466 3.62002V5.32802Z" fill="#2A7AE4"/>
<path d="M31.4613 11.18C31.1015 11.18 30.7653 11.124 30.4528 11.012C30.1404 10.8907 29.8705 10.7274 29.6432 10.522C29.416 10.3074 29.2361 10.06 29.1035 9.78003C28.9804 9.50003 28.9188 9.19203 28.9188 8.85603C28.9188 8.51069 28.9946 8.19336 29.1461 7.90403C29.3071 7.60536 29.5249 7.35336 29.7995 7.14803C30.0835 6.94269 30.4197 6.78402 30.8079 6.67202C31.1962 6.55069 31.6223 6.49002 32.0863 6.49002C32.4177 6.49002 32.7396 6.51802 33.0521 6.57402C33.3741 6.63002 33.6581 6.70936 33.9043 6.81202V6.39202C33.9043 5.90669 33.7623 5.53336 33.4782 5.27202C33.2036 5.01069 32.7917 4.88002 32.2425 4.88002C31.8448 4.88002 31.4566 4.95002 31.0778 5.09002C30.699 5.23002 30.3108 5.43536 29.9131 5.70602L29.3307 4.51602C30.2871 3.89069 31.3193 3.57802 32.4272 3.57802C33.4972 3.57802 34.3257 3.83936 34.9128 4.36202C35.5094 4.87536 35.8077 5.62202 35.8077 6.60202V8.88402C35.8077 9.08002 35.8408 9.22003 35.9071 9.30403C35.9828 9.38803 36.1012 9.43469 36.2622 9.44403V11.04C35.9402 11.1054 35.6609 11.138 35.4242 11.138C35.0643 11.138 34.785 11.0587 34.5861 10.9C34.3967 10.7414 34.2784 10.5314 34.231 10.27L34.1884 9.86403C33.857 10.2934 33.4546 10.62 32.9811 10.844C32.5076 11.068 32.001 11.18 31.4613 11.18ZM32.001 9.80803C32.323 9.80803 32.626 9.75203 32.9101 9.64003C33.2036 9.52803 33.4309 9.37869 33.5919 9.19203C33.8002 9.03336 33.9043 8.85603 33.9043 8.66003V7.82002C33.6771 7.73602 33.4309 7.67069 33.1658 7.62402C32.9006 7.56803 32.645 7.54003 32.3988 7.54003C31.9064 7.54003 31.5039 7.65203 31.1914 7.87603C30.879 8.09069 30.7227 8.36603 30.7227 8.70203C30.7227 9.01936 30.8458 9.28536 31.092 9.50003C31.3382 9.70536 31.6412 9.80803 32.001 9.80803Z" fill="#2A7AE4"/>
</svg>
