<svg width="35" height="12" viewBox="0 0 35 12" fill="none" xmlns="http://www.w3.org/2000/svg">
<path d="M7.77332 9.92003C6.96844 10.7134 6.03099 11.11 4.96098 11.11C4.29814 11.11 3.67317 10.9794 3.08608 10.718C2.50846 10.4567 2.00187 10.0974 1.56628 9.64003C1.14017 9.18269 0.799282 8.64603 0.543614 8.03003C0.297416 7.40469 0.174316 6.73269 0.174316 6.01402C0.174316 5.33269 0.297416 4.69336 0.543614 4.09602C0.799282 3.48936 1.14491 2.96202 1.58049 2.51402C2.02554 2.05669 2.54634 1.69736 3.1429 1.43602C3.73946 1.16536 4.38809 1.03002 5.08881 1.03002C6.03573 1.03002 6.84534 1.22602 7.51765 1.61802C8.19943 2.01002 8.71077 2.53736 9.05166 3.20002L7.58867 4.26402C7.333 3.76936 6.97318 3.39136 6.50919 3.13002C6.05467 2.86869 5.55754 2.73802 5.0178 2.73802C4.59168 2.73802 4.19871 2.82669 3.83888 3.00402C3.48852 3.18136 3.18551 3.42402 2.92984 3.73202C2.68365 4.04002 2.48953 4.39469 2.34749 4.79602C2.21492 5.19736 2.14864 5.62202 2.14864 6.07002C2.14864 6.53669 2.22439 6.97536 2.3759 7.38602C2.5274 7.78736 2.73572 8.13736 3.00086 8.43603C3.266 8.73469 3.57848 8.97269 3.93831 9.15003C4.30761 9.31803 4.70531 9.40203 5.13142 9.40203C6.10675 9.40203 6.98738 8.94936 7.77332 8.04403V7.34403H5.74219V5.93002H9.39255V11.04H7.77332V9.92003Z" fill="#464646"/>
<path d="M14.3299 11.18C13.7333 11.18 13.1936 11.082 12.7107 10.886C12.2277 10.6807 11.8158 10.4054 11.4749 10.06C11.1341 9.71469 10.8689 9.31336 10.6795 8.85603C10.4996 8.39869 10.4097 7.91803 10.4097 7.41402C10.4097 6.89136 10.4996 6.40136 10.6795 5.94402C10.8595 5.47736 11.1199 5.07136 11.4607 4.72602C11.8016 4.37136 12.2135 4.09136 12.6965 3.88602C13.1889 3.68069 13.7381 3.57802 14.3441 3.57802C14.9501 3.57802 15.4899 3.68069 15.9633 3.88602C16.4463 4.09136 16.8534 4.36669 17.1849 4.71202C17.5257 5.05736 17.7814 5.45869 17.9519 5.91602C18.1318 6.37336 18.2217 6.84936 18.2217 7.34403C18.2217 7.46536 18.217 7.58202 18.2075 7.69403C18.2075 7.80603 18.1981 7.89936 18.1791 7.97403H12.4266C12.455 8.26336 12.526 8.52002 12.6397 8.74403C12.7533 8.96803 12.9001 9.15936 13.08 9.31803C13.2599 9.47669 13.4635 9.59803 13.6907 9.68203C13.918 9.76603 14.1547 9.80803 14.4009 9.80803C14.7797 9.80803 15.1348 9.71936 15.4662 9.54203C15.8071 9.35536 16.0391 9.11269 16.1622 8.81402L17.7956 9.26203C17.521 9.82203 17.0807 10.284 16.4747 10.648C15.8781 11.0027 15.1632 11.18 14.3299 11.18ZM16.2616 6.75602C16.2143 6.20536 16.0059 5.76669 15.6366 5.44002C15.2768 5.10402 14.8365 4.93602 14.3157 4.93602C14.06 4.93602 13.8186 4.98269 13.5913 5.07602C13.3735 5.16002 13.1794 5.28136 13.009 5.44002C12.8385 5.59869 12.6965 5.79002 12.5828 6.01402C12.4787 6.23802 12.4171 6.48536 12.3982 6.75602H16.2616Z" fill="#464646"/>
<path d="M22.8327 11.18C22.2362 11.18 21.6964 11.082 21.2135 10.886C20.7306 10.6807 20.3187 10.4054 19.9778 10.06C19.6369 9.71469 19.3718 9.31336 19.1824 8.85603C19.0025 8.39869 18.9125 7.91803 18.9125 7.41402C18.9125 6.89136 19.0025 6.40136 19.1824 5.94402C19.3623 5.47736 19.6227 5.07136 19.9636 4.72602C20.3045 4.37136 20.7164 4.09136 21.1993 3.88602C21.6917 3.68069 22.2409 3.57802 22.8469 3.57802C23.453 3.57802 23.9927 3.68069 24.4662 3.88602C24.9491 4.09136 25.3563 4.36669 25.6877 4.71202C26.0286 5.05736 26.2842 5.45869 26.4547 5.91602C26.6346 6.37336 26.7246 6.84936 26.7246 7.34403C26.7246 7.46536 26.7198 7.58202 26.7104 7.69403C26.7104 7.80603 26.7009 7.89936 26.6819 7.97403H20.9294C20.9578 8.26336 21.0289 8.52002 21.1425 8.74403C21.2561 8.96803 21.4029 9.15936 21.5828 9.31803C21.7627 9.47669 21.9663 9.59803 22.1936 9.68203C22.4208 9.76603 22.6576 9.80803 22.9038 9.80803C23.2825 9.80803 23.6376 9.71936 23.969 9.54203C24.3099 9.35536 24.5419 9.11269 24.665 8.81402L26.2984 9.26203C26.0238 9.82203 25.5835 10.284 24.9775 10.648C24.3809 11.0027 23.666 11.18 22.8327 11.18ZM24.7644 6.75602C24.7171 6.20536 24.5088 5.76669 24.1395 5.44002C23.7796 5.10402 23.3393 4.93602 22.8185 4.93602C22.5629 4.93602 22.3214 4.98269 22.0941 5.07602C21.8763 5.16002 21.6822 5.28136 21.5118 5.44002C21.3413 5.59869 21.1993 5.79002 21.0857 6.01402C20.9815 6.23802 20.92 6.48536 20.901 6.75602H24.7644Z" fill="#464646"/>
<path d="M32.969 11.04L30.81 7.86203L29.7874 8.85603V11.04H27.8841V0.820023H29.7874V7.02203L32.7701 3.71802H34.8013L32.0315 6.82603L35.0001 11.04H32.969Z" fill="#464646"/>
</svg>
